<svg xmlns="http://www.w3.org/2000/svg" width="1152" height="384" viewBox="0 0 288 96" fill="none">
<defs>
 <linearGradient id="sky" x1="24" y1="0" x2="264" y2="96" gradientUnits="userSpaceOnUse" spreadMethod="reflect"><stop stop-color="#171445"/><stop offset=".5" stop-color="#4a2570"/><stop offset="1" stop-color="#d9734f"/></linearGradient>
 <radialGradient id="glow" cx="0" cy="0" r="1" gradientUnits="userSpaceOnUse" gradientTransform="translate(52 60) rotate(137) scale(120 84)"><stop stop-color="#f08c63" stop-opacity=".4"/><stop offset=".5" stop-color="#b06fda" stop-opacity=".16"/><stop offset="1" stop-color="#171445" stop-opacity="0"/></radialGradient>
 <linearGradient id="cloud" x1="0" y1="60" x2="288" y2="96" gradientUnits="userSpaceOnUse"><stop stop-color="#ffc09a" stop-opacity=".5"/><stop offset=".52" stop-color="#e2809d" stop-opacity=".62"/><stop offset="1" stop-color="#b06fda" stop-opacity=".5"/></linearGradient>
 <radialGradient id="flash" cx="0" cy="0" r="1" gradientUnits="userSpaceOnUse" gradientTransform="translate(186 34) scale(88 54)"><stop stop-color="#e4eaff" stop-opacity=".38"/><stop offset="1" stop-color="#e4eaff" stop-opacity="0"/></radialGradient>
 <filter id="soft" x="-24" y="-24" width="336" height="144" filterUnits="userSpaceOnUse"><feGaussianBlur stdDeviation="4"/></filter>
 <filter id="haze" x="-24" y="-24" width="336" height="144" filterUnits="userSpaceOnUse"><feGaussianBlur stdDeviation="9"/></filter>
 <mask id="crescent"><circle cx="52" cy="60" r="9" fill="#fff"/><circle cx="47" cy="56.5" r="8.5" fill="#000"/></mask>
</defs>
<rect width="288" height="96" fill="url(#sky)"/>
<rect width="288" height="96" fill="url(#glow)"/>
<g opacity="0.55"><g fill="#e4eaff"><circle cx="14" cy="10" r="0.6" fill-opacity="0.85"/><circle cx="38" cy="22" r="0.4" fill-opacity="0.55"/><circle cx="58" cy="8" r="0.5" fill-opacity="0.7"/><circle cx="84" cy="16" r="0.4" fill-opacity="0.5"/><circle cx="104" cy="7" r="0.6" fill-opacity="0.8"/><circle cx="126" cy="20" r="0.4" fill-opacity="0.55"/><circle cx="148" cy="11" r="0.5" fill-opacity="0.7"/><circle cx="170" cy="24" r="0.4" fill-opacity="0.5"/><circle cx="192" cy="9" r="0.6" fill-opacity="0.8"/><circle cx="214" cy="18" r="0.4" fill-opacity="0.55"/><circle cx="236" cy="8" r="0.5" fill-opacity="0.7"/><circle cx="258" cy="20" r="0.45" fill-opacity="0.6"/><circle cx="278" cy="11" r="0.55" fill-opacity="0.75"/><circle cx="26" cy="34" r="0.4" fill-opacity="0.45"/><circle cx="118" cy="34" r="0.4" fill-opacity="0.45"/><circle cx="202" cy="32" r="0.4" fill-opacity="0.5"/><circle cx="268" cy="34" r="0.4" fill-opacity="0.45"/></g><g stroke="#c8d7ff" stroke-linecap="round" stroke-opacity=".7" stroke-width=".6"><path d="M68.5 28H71.5"/><path d="M70 26.5V29.5"/><path d="M158.5 36H161.5"/><path d="M160 34.5V37.5"/><path d="M244.5 26H247.5"/><path d="M246 24.5V27.5"/></g></g>


<g filter="url(#soft)" fill="url(#cloud)"><path d="M-12 88C-12 74 0 63 14 63C18 50 30 41 44 41C58 41 70 49 74 62C79 57 86 54 94 54C110 54 123 66 124 82C132 83 138 88 141 96H-12V88Z" transform="translate(0 0)" fill-opacity="1"/><path d="M150 96C151 84 161 75 173 75C176 64 186 57 198 57C210 57 220 64 223 75C231 75 238 80 241 87C250 87 257 91 260 96H150Z" transform="translate(0 0)" fill-opacity="0.8"/></g>


</svg>